<svg width="64" height="68" viewBox="0 0 64 68" fill="none" xmlns="http://www.w3.org/2000/svg">
<g filter="url(#filter0_d_60_7)">
<path d="M40.1765 34.6V35.0167L40.4723 35.3101L42.9832 37.8H21.0168L23.5277 35.3101L23.8235 35.0167V34.6V26.9C23.8235 23.1087 26.524 19.8648 30.103 19.0554L30.8824 18.8791V18.08V17.1C30.8824 16.4702 31.3444 16 32 16C32.6556 16 33.1176 16.4702 33.1176 17.1V18.08V18.8791L33.897 19.0554C37.476 19.8648 40.1765 23.1087 40.1765 26.9V34.6ZM33.5126 41.2C33.1852 41.6796 32.6304 42 32 42C31.3696 42 30.8148 41.6796 30.4874 41.2H33.5126Z" stroke="#54669C" stroke-width="2"/>
</g>
<defs>
<filter id="filter0_d_60_7" x="0" y="0" width="64" height="68" filterUnits="userSpaceOnUse" color-interpolation-filters="sRGB">
<feFlood flood-opacity="0" result="BackgroundImageFix"/>
<feColorMatrix in="SourceAlpha" type="matrix" values="0 0 0 0 0 0 0 0 0 0 0 0 0 0 0 0 0 0 127 0" result="hardAlpha"/>
<feOffset dy="5"/>
<feGaussianBlur stdDeviation="10"/>
<feColorMatrix type="matrix" values="0 0 0 0 0 0 0 0 0 0.592157 0 0 0 0 0.909804 0 0 0 0.4 0"/>
<feBlend mode="normal" in2="BackgroundImageFix" result="effect1_dropShadow_60_7"/>
<feBlend mode="normal" in="SourceGraphic" in2="effect1_dropShadow_60_7" result="shape"/>
</filter>
</defs>
</svg>
