<svg width="23" height="31" viewBox="0 0 23 31" fill="none" xmlns="http://www.w3.org/2000/svg">
<path d="M14.1282 31C13.1463 31 12.1593 31 11.1774 31C11.1774 29.4495 11.1774 27.904 11.1774 26.3089C10.4245 26.3089 9.69693 26.3089 8.9745 26.3089C8.80152 26.3089 8.83713 26.4476 8.83713 26.5467C8.83713 28.0328 8.83713 29.5189 8.83713 31C7.85523 31 6.86824 31 5.88633 31C5.88633 29.4198 5.88633 27.8396 5.88633 26.2247C3.90218 26.2247 1.95363 26.2247 0.0203503 26.2247C0.00508758 26.1751 0 26.1553 0 26.1454C0.183153 25.0903 0.366306 24.0302 0.544371 22.9751C0.569809 22.8166 0.666473 22.8265 0.7784 22.8265C1.37874 22.8265 1.98416 22.8265 2.58449 22.8265C3.41377 22.8215 3.80551 22.4302 3.80551 21.6178C3.80551 17.5062 3.80551 13.3947 3.80551 9.28811C3.80551 8.39645 3.24588 7.81192 2.33011 7.76238C1.84679 7.73762 1.36347 7.73762 0.880152 7.73266C0.585072 7.72771 0.29508 7.73266 0 7.73266C0 6.70725 0 5.71157 0 4.68616C1.96889 4.68616 3.92253 4.68616 5.88633 4.68616C5.88633 3.10099 5.88633 1.5505 5.88633 0C6.86824 0 7.85523 0 8.83713 0C8.83713 1.46133 8.83713 2.92266 8.82696 4.38399C8.82696 4.55737 8.88292 4.61186 9.06099 4.6069C9.56975 4.58709 10.0785 4.58709 10.5873 4.58213C10.7755 4.58213 10.9688 4.58213 11.1774 4.58213C11.1774 3.02173 11.1774 1.51087 11.1774 0C12.1593 0 13.1463 0 14.1282 0C14.1231 0.0990732 14.118 0.198146 14.118 0.29722C14.118 1.61985 14.118 2.93752 14.118 4.26015C14.118 4.71588 14.118 4.71093 14.5963 4.76047C15.9038 4.89917 17.1909 5.12704 18.4018 5.67689C19.5414 6.19207 20.4317 6.94503 20.8998 8.11409C21.2356 8.95622 21.317 9.82806 21.2508 10.7148C21.1389 12.2306 20.4165 13.3848 19.0683 14.1576C18.9767 14.212 18.8851 14.2616 18.7579 14.3309C18.8393 14.3706 18.8749 14.3854 18.9156 14.4003C19.4193 14.5836 19.9484 14.7272 20.4317 14.965C21.607 15.5446 22.4515 16.4164 22.7822 17.6945C23.118 18.9725 23.0417 20.2506 22.7161 21.5137C22.4312 22.6085 21.897 23.5695 21.0015 24.3126C19.9891 25.1547 18.7732 25.6005 17.4962 25.8482C16.4787 26.0414 15.4357 26.1206 14.3979 26.2296C14.174 26.2544 14.113 26.3237 14.118 26.5318C14.1333 26.9132 14.1231 27.2897 14.1231 27.6711C14.1231 28.7709 14.1231 29.8854 14.1282 31ZM8.8931 22.8265C9.80377 22.8265 10.6687 22.8463 11.5285 22.8215C12.6986 22.7868 13.8637 22.663 14.9728 22.2667C15.6698 22.019 16.3311 21.6871 16.728 21.0382C17.5064 19.775 17.0994 18.175 15.7919 17.427C14.8405 16.8821 13.7823 16.6393 12.6884 16.5898C11.5285 16.5403 10.3685 16.5551 9.20853 16.5254C8.95415 16.5205 8.88292 16.5898 8.88292 16.8424C8.8931 18.7397 8.88801 20.6369 8.88801 22.5342C8.8931 22.6234 8.8931 22.7125 8.8931 22.8265ZM8.89818 10.7891C8.89818 11.6708 8.89818 12.5575 8.89818 13.4393C8.89818 13.578 8.90327 13.6721 9.0966 13.6771C10.5822 13.7018 12.0627 13.6969 13.5126 13.3204C14.2656 13.1222 14.9219 12.7656 15.3798 12.1563C16.0768 11.225 15.8427 9.6844 14.9219 8.9364C14.174 8.33206 13.2633 8.09923 12.3323 8.02493C11.269 7.94072 10.2006 7.96548 9.13221 7.93081C8.92362 7.92586 8.89818 8.01997 8.89818 8.1884C8.89818 9.05529 8.8931 9.92218 8.89818 10.7891Z" fill="white"/>
</svg>
