<svg width="36" height="42" viewBox="0 0 36 42" fill="none" xmlns="http://www.w3.org/2000/svg">
<path d="M0.0114395 20.9886C0.0114395 17.7361 0.0228789 14.4952 0 11.2427C0 10.643 0.20591 10.297 0.709247 10.0086C6.28027 6.7446 11.8398 3.46905 17.388 0.181971C17.8799 -0.106369 18.2574 -0.0256339 18.7035 0.239639C23.9542 3.35372 29.2278 6.44473 34.4785 9.55881C36.1144 10.5276 35.9886 10.0317 35.9886 12.2346C35.9886 18.382 35.9771 24.5294 36 30.6884C36 31.3458 35.7941 31.738 35.2221 32.0724C29.7312 35.2788 24.2631 38.5082 18.795 41.7491C18.2231 42.0836 17.7884 42.0836 17.2278 41.7491C11.7598 38.5082 6.28027 35.2903 0.800763 32.084C0.228789 31.7495 0.0114395 31.3574 0.0228789 30.6999C0.0228789 27.4475 0.0114395 24.218 0.0114395 20.9886ZM30.795 21.7614C30.8065 21.9805 30.8522 22.142 30.8179 22.2804C30.5205 23.4684 30.3031 24.6909 29.8684 25.8327C28.8503 28.5201 26.9056 30.4577 24.5262 31.9571C21.266 34.0101 17.9714 36.0169 14.6883 38.0469C14.5052 38.1622 14.3337 38.2891 14.1163 38.439C14.2536 38.5659 14.3108 38.6351 14.3908 38.6812C15.2488 39.2233 16.1068 39.7538 16.9647 40.2844C17.7312 40.7573 18.4862 40.6534 19.2183 40.1806C19.9733 39.6962 20.7398 39.2348 21.4948 38.7504C21.6206 38.6697 21.7235 38.5774 21.9066 38.4505C20.9342 37.8277 20.0191 37.228 19.0238 36.5821C20.4652 35.7517 21.7922 34.9558 23.142 34.2177C23.3136 34.1254 23.6683 34.2177 23.8627 34.3446C24.5148 34.7713 25.1439 35.2442 25.7731 35.7171C26.0477 35.9247 26.265 35.9708 26.5853 35.7863C29.0906 34.2869 31.6072 32.7991 34.1354 31.3343C34.6044 31.0575 34.7989 30.6999 34.7874 30.1694C34.7645 28.8776 34.7874 27.5974 34.776 26.3056C34.776 21.5422 34.776 16.7673 34.776 12.0039C34.776 11.5426 34.7302 11.1274 34.2841 10.8621C31.7216 9.3512 29.1592 7.81723 26.5853 6.32939C26.368 6.20252 25.9333 6.22559 25.7159 6.35246C22.3985 8.40544 19.1153 10.4815 15.8093 12.546C14.0934 13.6186 12.4118 14.7605 11.0734 16.3175C8.75119 19.0048 8.6368 22.5226 10.776 25.3599C11.6683 26.5363 12.7893 27.459 13.9905 28.2779C14.9514 28.9238 15.9237 29.5581 16.9647 30.2501C15.6492 31.0229 14.3908 31.738 13.1554 32.4876C12.755 32.7299 12.4118 32.7529 12.0686 32.4415C10.8332 31.392 9.48332 30.4462 8.38513 29.2582C5.29647 25.9365 4.44995 21.9574 5.62822 17.6093C6.54337 14.2184 8.75119 11.7617 11.6454 9.91635C14.6883 7.9787 17.7769 6.11025 20.8427 4.21874C21.1516 4.0342 21.449 3.83813 21.8151 3.59592C21.6092 3.43445 21.4719 3.30758 21.3117 3.21531C20.408 2.68477 19.4929 2.17729 18.6006 1.62367C18.1888 1.36993 17.8341 1.36993 17.4223 1.61214C16.4271 2.21189 15.4204 2.8001 14.4137 3.38832C14.3337 3.43445 14.2307 3.45752 14.0591 3.51519C15.123 4.20721 16.0153 4.78389 16.9762 5.4067C15.5577 6.24866 14.2421 7.05601 12.8923 7.80569C12.7207 7.89796 12.3661 7.81723 12.1716 7.69036C11.5767 7.30975 11.0048 6.88301 10.4557 6.44473C10.0782 6.13332 9.74642 6.09872 9.31173 6.35246C6.79504 7.8403 4.27836 9.3166 1.76168 10.7929C1.37274 11.0236 1.20114 11.3119 1.20114 11.7733C1.21258 17.9437 1.21258 24.1142 1.20114 30.2847C1.20114 30.7691 1.38418 31.069 1.78456 31.3112C4.2898 32.776 6.7836 34.2523 9.27741 35.7286C9.65491 35.9593 9.97521 35.9247 10.3298 35.6825C11.0848 35.1634 11.8627 34.6675 12.6292 34.1716C16.0038 32.0148 19.3899 29.858 22.7645 27.6897C23.2221 27.3898 23.6225 27.0092 24.0572 26.6516C24.0229 26.5824 23.9886 26.5248 23.9657 26.4556C21.0715 26.4556 18.1773 26.4556 15.1916 26.4556C15.9924 25.0485 16.7588 23.7682 17.4681 22.4534C17.7426 21.9459 18.0744 21.7614 18.6463 21.7729C22.4557 21.796 26.2765 21.7844 30.0858 21.7844C30.3146 21.7614 30.5434 21.7614 30.795 21.7614Z" fill="white"/>
</svg>
