<svg width="24" height="24" viewBox="0 0 24 24" fill="none" xmlns="http://www.w3.org/2000/svg">
<path d="M15.501 14H14.701L14.401 13.75C15.401 12.6 15.951 11.15 15.951 9.5C15.951 5.9 13.051 3 9.45097 3C5.85097 3 3.00098 5.9 3.00098 9.5C3.00098 13.1 5.90097 16 9.50097 16C11.101 16 12.601 15.4 13.701 14.45L14.001 14.7V15.5L19.001 20.5L20.501 19L15.501 14ZM9.50097 14C7.00097 14 5.00097 12 5.00097 9.5C5.00097 7 7.00097 5 9.50097 5C12.001 5 14.001 7 14.001 9.5C14.001 12 12.001 14 9.50097 14Z" fill="white"/>
</svg>
